<mxfile host="app.diagrams.net" modified="2023-02-16T12:58:16.705Z" agent="5.0 (Windows NT 10.0; Win64; x64) AppleWebKit/537.36 (KHTML, like Gecko) Chrome/110.0.0.0 Safari/537.36 Edg/110.0.1587.41" etag="-DsDA2c1j-zXABC2bT3D" version="20.8.20" type="github">
  <diagram name="第 1 页" id="euxp1nOTQh1jiR2urX6a">
    <mxGraphModel dx="1434" dy="796" grid="1" gridSize="10" guides="1" tooltips="1" connect="1" arrows="1" fold="1" page="1" pageScale="1" pageWidth="827" pageHeight="1169" math="0" shadow="0">
      <root>
        <mxCell id="0" />
        <mxCell id="1" parent="0" />
        <mxCell id="ClK0ceCzx-dDF-jffAyo-1" style="edgeStyle=orthogonalEdgeStyle;rounded=0;orthogonalLoop=1;jettySize=auto;html=1;exitX=1;exitY=0.5;exitDx=0;exitDy=0;entryX=0;entryY=0.5;entryDx=0;entryDy=0;fontSize=17;" edge="1" parent="1" source="ClK0ceCzx-dDF-jffAyo-2" target="ClK0ceCzx-dDF-jffAyo-4">
          <mxGeometry relative="1" as="geometry" />
        </mxCell>
        <mxCell id="ClK0ceCzx-dDF-jffAyo-2" value="↑w0" style="ellipse;whiteSpace=wrap;html=1;fontSize=17;" vertex="1" parent="1">
          <mxGeometry x="60" y="605" width="80" height="50" as="geometry" />
        </mxCell>
        <mxCell id="ClK0ceCzx-dDF-jffAyo-3" style="edgeStyle=orthogonalEdgeStyle;rounded=0;orthogonalLoop=1;jettySize=auto;html=1;exitX=1;exitY=0.5;exitDx=0;exitDy=0;entryX=0;entryY=0.5;entryDx=0;entryDy=0;fontSize=17;" edge="1" parent="1" source="ClK0ceCzx-dDF-jffAyo-4" target="ClK0ceCzx-dDF-jffAyo-7">
          <mxGeometry relative="1" as="geometry" />
        </mxCell>
        <mxCell id="ClK0ceCzx-dDF-jffAyo-4" value="&lt;span style=&quot;font-family: &amp;quot;Times New Roman&amp;quot;;&quot;&gt;↑r0&lt;/span&gt;" style="ellipse;whiteSpace=wrap;html=1;fontSize=17;" vertex="1" parent="1">
          <mxGeometry x="199" y="605" width="80" height="50" as="geometry" />
        </mxCell>
        <mxCell id="ClK0ceCzx-dDF-jffAyo-5" style="edgeStyle=orthogonalEdgeStyle;rounded=0;orthogonalLoop=1;jettySize=auto;html=1;exitX=1;exitY=0.5;exitDx=0;exitDy=0;entryX=0;entryY=0.5;entryDx=0;entryDy=0;fontSize=17;" edge="1" parent="1" source="ClK0ceCzx-dDF-jffAyo-7" target="ClK0ceCzx-dDF-jffAyo-12">
          <mxGeometry relative="1" as="geometry" />
        </mxCell>
        <mxCell id="ClK0ceCzx-dDF-jffAyo-6" style="edgeStyle=orthogonalEdgeStyle;rounded=0;orthogonalLoop=1;jettySize=auto;html=1;exitX=1;exitY=0;exitDx=0;exitDy=0;entryX=0;entryY=0;entryDx=0;entryDy=0;fontSize=18;" edge="1" parent="1" source="ClK0ceCzx-dDF-jffAyo-7" target="ClK0ceCzx-dDF-jffAyo-4">
          <mxGeometry relative="1" as="geometry">
            <Array as="points">
              <mxPoint x="402" y="590" />
              <mxPoint x="211" y="590" />
            </Array>
          </mxGeometry>
        </mxCell>
        <mxCell id="ClK0ceCzx-dDF-jffAyo-7" value="&lt;span style=&quot;font-family: &amp;quot;Times New Roman&amp;quot;;&quot;&gt;↑w1&lt;/span&gt;" style="ellipse;whiteSpace=wrap;html=1;fontSize=17;" vertex="1" parent="1">
          <mxGeometry x="334" y="605" width="80" height="50" as="geometry" />
        </mxCell>
        <mxCell id="ClK0ceCzx-dDF-jffAyo-8" value="&amp;lt;0,0,x&amp;gt;" style="text;html=1;strokeColor=none;fillColor=none;align=center;verticalAlign=middle;whiteSpace=wrap;rounded=0;glass=0;fontSize=17;opacity=20;" vertex="1" parent="1">
          <mxGeometry x="140" y="605" width="60" height="30" as="geometry" />
        </mxCell>
        <mxCell id="ClK0ceCzx-dDF-jffAyo-9" value="&amp;lt;1,0,0&amp;gt;" style="text;html=1;strokeColor=none;fillColor=none;align=center;verticalAlign=middle;whiteSpace=wrap;rounded=0;glass=0;fontSize=17;opacity=20;" vertex="1" parent="1">
          <mxGeometry x="275" y="605" width="60" height="30" as="geometry" />
        </mxCell>
        <mxCell id="ClK0ceCzx-dDF-jffAyo-10" value="&amp;lt;1,1,0&amp;gt;" style="text;html=1;strokeColor=none;fillColor=none;align=center;verticalAlign=middle;whiteSpace=wrap;rounded=0;glass=0;fontSize=17;opacity=20;" vertex="1" parent="1">
          <mxGeometry x="414" y="605" width="60" height="30" as="geometry" />
        </mxCell>
        <mxCell id="ClK0ceCzx-dDF-jffAyo-11" style="edgeStyle=orthogonalEdgeStyle;rounded=0;orthogonalLoop=1;jettySize=auto;html=1;exitX=1;exitY=0.5;exitDx=0;exitDy=0;entryX=0;entryY=0.5;entryDx=0;entryDy=0;fontSize=17;" edge="1" parent="1" source="ClK0ceCzx-dDF-jffAyo-12" target="ClK0ceCzx-dDF-jffAyo-16">
          <mxGeometry relative="1" as="geometry" />
        </mxCell>
        <mxCell id="ClK0ceCzx-dDF-jffAyo-12" value="&lt;span style=&quot;font-family: &amp;quot;Times New Roman&amp;quot;;&quot;&gt;↑r1&lt;/span&gt;" style="ellipse;whiteSpace=wrap;html=1;fontSize=17;" vertex="1" parent="1">
          <mxGeometry x="474" y="605" width="80" height="50" as="geometry" />
        </mxCell>
        <mxCell id="ClK0ceCzx-dDF-jffAyo-13" value="" style="rounded=1;whiteSpace=wrap;html=1;glass=0;fontSize=17;strokeColor=#000000;opacity=20;" vertex="1" parent="1">
          <mxGeometry x="195" y="577.5" width="225" height="85" as="geometry" />
        </mxCell>
        <mxCell id="ClK0ceCzx-dDF-jffAyo-14" style="edgeStyle=orthogonalEdgeStyle;rounded=0;orthogonalLoop=1;jettySize=auto;html=1;exitX=1;exitY=0.5;exitDx=0;exitDy=0;entryX=0;entryY=0.5;entryDx=0;entryDy=0;fontSize=18;" edge="1" parent="1" source="ClK0ceCzx-dDF-jffAyo-16" target="ClK0ceCzx-dDF-jffAyo-21">
          <mxGeometry relative="1" as="geometry" />
        </mxCell>
        <mxCell id="ClK0ceCzx-dDF-jffAyo-15" style="edgeStyle=orthogonalEdgeStyle;rounded=0;orthogonalLoop=1;jettySize=auto;html=1;exitX=1;exitY=0;exitDx=0;exitDy=0;entryX=0;entryY=0;entryDx=0;entryDy=0;fontSize=18;" edge="1" parent="1" source="ClK0ceCzx-dDF-jffAyo-16" target="ClK0ceCzx-dDF-jffAyo-12">
          <mxGeometry relative="1" as="geometry">
            <Array as="points">
              <mxPoint x="682" y="590" />
              <mxPoint x="486" y="590" />
            </Array>
          </mxGeometry>
        </mxCell>
        <mxCell id="ClK0ceCzx-dDF-jffAyo-16" value="&lt;span style=&quot;font-family: &amp;quot;Times New Roman&amp;quot;;&quot;&gt;↑w0&lt;/span&gt;" style="ellipse;whiteSpace=wrap;html=1;fontSize=17;" vertex="1" parent="1">
          <mxGeometry x="614" y="605" width="80" height="50" as="geometry" />
        </mxCell>
        <mxCell id="ClK0ceCzx-dDF-jffAyo-17" value="&amp;lt;0,1,1&amp;gt;" style="text;html=1;strokeColor=none;fillColor=none;align=center;verticalAlign=middle;whiteSpace=wrap;rounded=0;glass=0;fontSize=17;opacity=20;" vertex="1" parent="1">
          <mxGeometry x="554" y="605" width="60" height="30" as="geometry" />
        </mxCell>
        <mxCell id="ClK0ceCzx-dDF-jffAyo-18" value="" style="rounded=1;whiteSpace=wrap;html=1;glass=0;fontSize=17;strokeColor=#000000;opacity=20;" vertex="1" parent="1">
          <mxGeometry x="474" y="577.5" width="226" height="85" as="geometry" />
        </mxCell>
        <mxCell id="ClK0ceCzx-dDF-jffAyo-19" value="" style="endArrow=classic;html=1;rounded=0;fontSize=18;" edge="1" parent="1">
          <mxGeometry width="50" height="50" relative="1" as="geometry">
            <mxPoint x="10" y="625" as="sourcePoint" />
            <mxPoint x="60" y="625" as="targetPoint" />
          </mxGeometry>
        </mxCell>
        <mxCell id="ClK0ceCzx-dDF-jffAyo-20" value="&amp;lt;x&amp;gt;" style="text;html=1;strokeColor=none;fillColor=none;align=center;verticalAlign=middle;whiteSpace=wrap;rounded=0;glass=0;fontSize=18;opacity=20;" vertex="1" parent="1">
          <mxGeometry x="10" y="605" width="40" height="30" as="geometry" />
        </mxCell>
        <mxCell id="ClK0ceCzx-dDF-jffAyo-21" value="&lt;span style=&quot;font-family: &amp;quot;Times New Roman&amp;quot;;&quot;&gt;&lt;font style=&quot;font-size: 18px;&quot;&gt;↕&lt;/font&gt;&lt;/span&gt;r0" style="ellipse;whiteSpace=wrap;html=1;fontSize=17;" vertex="1" parent="1">
          <mxGeometry x="740" y="605" width="80" height="50" as="geometry" />
        </mxCell>
        <mxCell id="ClK0ceCzx-dDF-jffAyo-22" value="&amp;lt;0,0,1&amp;gt;" style="text;html=1;strokeColor=none;fillColor=none;align=center;verticalAlign=middle;whiteSpace=wrap;rounded=0;glass=0;fontSize=18;opacity=20;" vertex="1" parent="1">
          <mxGeometry x="690" y="600" width="60" height="30" as="geometry" />
        </mxCell>
        <mxCell id="ClK0ceCzx-dDF-jffAyo-23" value="1" style="text;html=1;strokeColor=none;fillColor=none;align=center;verticalAlign=middle;whiteSpace=wrap;rounded=0;glass=0;fontSize=18;opacity=20;" vertex="1" parent="1">
          <mxGeometry x="70" y="655" width="60" height="30" as="geometry" />
        </mxCell>
        <mxCell id="ClK0ceCzx-dDF-jffAyo-24" value="2" style="text;html=1;strokeColor=none;fillColor=none;align=center;verticalAlign=middle;whiteSpace=wrap;rounded=0;glass=0;fontSize=18;opacity=20;" vertex="1" parent="1">
          <mxGeometry x="205" y="655" width="60" height="30" as="geometry" />
        </mxCell>
        <mxCell id="ClK0ceCzx-dDF-jffAyo-25" value="3" style="text;html=1;strokeColor=none;fillColor=none;align=center;verticalAlign=middle;whiteSpace=wrap;rounded=0;glass=0;fontSize=18;opacity=20;" vertex="1" parent="1">
          <mxGeometry x="341" y="655" width="60" height="30" as="geometry" />
        </mxCell>
        <mxCell id="ClK0ceCzx-dDF-jffAyo-26" value="4" style="text;html=1;strokeColor=none;fillColor=none;align=center;verticalAlign=middle;whiteSpace=wrap;rounded=0;glass=0;fontSize=18;opacity=20;" vertex="1" parent="1">
          <mxGeometry x="484" y="655" width="60" height="30" as="geometry" />
        </mxCell>
        <mxCell id="ClK0ceCzx-dDF-jffAyo-27" value="5" style="text;html=1;strokeColor=none;fillColor=none;align=center;verticalAlign=middle;whiteSpace=wrap;rounded=0;glass=0;fontSize=18;opacity=20;" vertex="1" parent="1">
          <mxGeometry x="630" y="655" width="60" height="30" as="geometry" />
        </mxCell>
        <mxCell id="ClK0ceCzx-dDF-jffAyo-28" value="6" style="text;html=1;strokeColor=none;fillColor=none;align=center;verticalAlign=middle;whiteSpace=wrap;rounded=0;glass=0;fontSize=18;opacity=20;" vertex="1" parent="1">
          <mxGeometry x="759" y="655" width="60" height="30" as="geometry" />
        </mxCell>
        <mxCell id="ClK0ceCzx-dDF-jffAyo-29" value="" style="shape=curlyBracket;whiteSpace=wrap;html=1;rounded=1;glass=0;fontSize=18;strokeColor=#000000;direction=north;size=0.5;" vertex="1" parent="1">
          <mxGeometry x="195" y="680" width="66" height="20" as="geometry" />
        </mxCell>
        <mxCell id="ClK0ceCzx-dDF-jffAyo-30" value="&lt;table border=&quot;1&quot; width=&quot;100%&quot; height=&quot;100%&quot; cellpadding=&quot;4&quot; style=&quot;width:100%;height:100%;border-collapse:collapse;&quot;&gt;&lt;tbody&gt;&lt;tr&gt;&lt;th style=&quot;text-align: center;&quot;&gt;&lt;span style=&quot;font-weight: normal;&quot;&gt;SF&amp;lt;0/1/-&amp;gt;&lt;/span&gt;&lt;/th&gt;&lt;/tr&gt;&lt;tr&gt;&lt;td style=&quot;text-align: center;&quot;&gt;SAF&amp;lt;任意/-&amp;gt;&lt;/td&gt;&lt;/tr&gt;&lt;tr&gt;&lt;td style=&quot;text-align: center;&quot;&gt;RDF&amp;lt;r0/1/1&amp;gt;&lt;/td&gt;&lt;/tr&gt;&lt;tr&gt;&lt;td style=&quot;text-align: center;&quot;&gt;IRF&amp;lt;r0/0/1&amp;gt;&lt;/td&gt;&lt;/tr&gt;&lt;tr&gt;&lt;td style=&quot;text-align: center;&quot;&gt;CFst&amp;lt;0;0/1/-&amp;gt;↑&lt;br&gt;&lt;/td&gt;&lt;/tr&gt;&lt;tr&gt;&lt;td style=&quot;text-align: center;&quot;&gt;CFir&amp;lt;0;r0/0/1&amp;gt;↑&lt;/td&gt;&lt;/tr&gt;&lt;tr&gt;&lt;td style=&quot;text-align: center;&quot;&gt;CFrd&amp;lt;0;r0/1/1&amp;gt;↑&lt;/td&gt;&lt;/tr&gt;&lt;/tbody&gt;&lt;/table&gt;" style="text;html=1;strokeColor=none;fillColor=none;overflow=fill;glass=0;fontSize=18;" vertex="1" parent="1">
          <mxGeometry x="148" y="710" width="160" height="240" as="geometry" />
        </mxCell>
        <mxCell id="ClK0ceCzx-dDF-jffAyo-31" value="" style="shape=curlyBracket;whiteSpace=wrap;html=1;rounded=1;flipH=1;glass=0;fontSize=18;strokeColor=#000000;direction=north;size=0.5;" vertex="1" parent="1">
          <mxGeometry x="750" y="685" width="60" height="20" as="geometry" />
        </mxCell>
        <mxCell id="ClK0ceCzx-dDF-jffAyo-32" value="&lt;table border=&quot;1&quot; width=&quot;100%&quot; height=&quot;100%&quot; cellpadding=&quot;4&quot; style=&quot;width:100%;height:100%;border-collapse:collapse;&quot;&gt;&lt;tbody&gt;&lt;tr&gt;&lt;th style=&quot;text-align: center;&quot;&gt;&lt;span style=&quot;font-weight: normal;&quot;&gt;SF&amp;lt;0/1/-&amp;gt;&lt;/span&gt;&lt;/th&gt;&lt;/tr&gt;&lt;tr&gt;&lt;td style=&quot;text-align: center;&quot;&gt;SAF&amp;lt;任意/-&amp;gt;&lt;/td&gt;&lt;/tr&gt;&lt;tr&gt;&lt;td style=&quot;text-align: center;&quot;&gt;RDF&amp;lt;r0/1/1&amp;gt;&lt;/td&gt;&lt;/tr&gt;&lt;tr&gt;&lt;td style=&quot;text-align: center;&quot;&gt;IRF&amp;lt;r0/0/1&amp;gt;&lt;/td&gt;&lt;/tr&gt;&lt;tr&gt;&lt;td style=&quot;text-align: center;&quot;&gt;CFst&amp;lt;0;0/1/-&amp;gt;↑&lt;br&gt;&lt;/td&gt;&lt;/tr&gt;&lt;tr&gt;&lt;td style=&quot;text-align: center;&quot;&gt;CFir&amp;lt;0;r0/0/1&amp;gt;↑&lt;/td&gt;&lt;/tr&gt;&lt;tr&gt;&lt;td style=&quot;text-align: center;&quot;&gt;CFrd&amp;lt;0;r0/1/1&amp;gt;↑&lt;/td&gt;&lt;/tr&gt;&lt;/tbody&gt;&lt;/table&gt;" style="text;html=1;strokeColor=none;fillColor=none;overflow=fill;glass=0;fontSize=18;" vertex="1" parent="1">
          <mxGeometry x="660" y="710" width="160" height="240" as="geometry" />
        </mxCell>
        <mxCell id="ClK0ceCzx-dDF-jffAyo-33" value="" style="shape=curlyBracket;whiteSpace=wrap;html=1;rounded=1;flipH=1;glass=0;fontSize=18;strokeColor=#000000;direction=north;size=0.5;" vertex="1" parent="1">
          <mxGeometry x="370" y="685" width="150" height="20" as="geometry" />
        </mxCell>
        <mxCell id="ClK0ceCzx-dDF-jffAyo-34" value="&lt;table border=&quot;1&quot; width=&quot;100%&quot; height=&quot;100%&quot; cellpadding=&quot;4&quot; style=&quot;width:100%;height:100%;border-collapse:collapse;&quot;&gt;&lt;tbody&gt;&lt;tr&gt;&lt;th style=&quot;text-align: center;&quot;&gt;&lt;span style=&quot;font-weight: 400;&quot;&gt;CFtr&amp;lt;0;0w1/0/-&amp;gt;&lt;/span&gt;↑&lt;/th&gt;&lt;/tr&gt;&lt;tr&gt;&lt;td style=&quot;text-align: center;&quot;&gt;TF&amp;lt;0w1/0/-&amp;gt;&lt;/td&gt;&lt;/tr&gt;&lt;tr&gt;&lt;td style=&quot;text-align: center;&quot;&gt;CFdsxw!x&amp;lt;0w1;1/0/-&amp;gt;↑&lt;/td&gt;&lt;/tr&gt;&lt;/tbody&gt;&lt;/table&gt;" style="text;html=1;strokeColor=none;fillColor=none;overflow=fill;glass=0;fontSize=18;" vertex="1" parent="1">
          <mxGeometry x="360" y="710" width="194" height="122" as="geometry" />
        </mxCell>
      </root>
    </mxGraphModel>
  </diagram>
</mxfile>
